HIERARCHY
ROOT Hips
{
	OFFSET 0.00000 0.00000 0.00000
	CHANNELS 6 Xposition Yposition Zposition Zrotation Yrotation Xrotation 
	JOINT LHipJoint
	{
		OFFSET 0 0 0
		CHANNELS 3 Zrotation Yrotation Xrotation
		JOINT LeftHip
		{
			OFFSET 1.37590 -1.78394 0.89329
			CHANNELS 3 Zrotation Yrotation Xrotation
			JOINT LeftKnee
			{
				OFFSET 2.47928 -6.81178 0.00000
				CHANNELS 3 Zrotation Yrotation Xrotation
				JOINT LeftAnkle
				{
					OFFSET 2.63345 -7.23535 0.00000
					CHANNELS 3 Zrotation Yrotation Xrotation
					JOINT LeftToe
					{
						OFFSET 0.23938 -0.65768 2.27012
						CHANNELS 3 Zrotation Yrotation Xrotation
						End Site
						{
							OFFSET 0.00000 -0.00000 1.18363
						}
					}
				}
			}
		}
	}
	JOINT RHipJoint
	{
		OFFSET 0 0 0
		CHANNELS 3 Zrotation Yrotation Xrotation
		JOINT RightHip
		{
			OFFSET -1.33617 -1.78394 0.89329
			CHANNELS 3 Zrotation Yrotation Xrotation
			JOINT RightKnee
			{
				OFFSET -2.56922 -7.05888 0.00000
				CHANNELS 3 Zrotation Yrotation Xrotation
				JOINT RightAnkle
				{
					OFFSET -2.56568 -7.04915 0.00000
					CHANNELS 3 Zrotation Yrotation Xrotation
					JOINT RightToe
					{
						OFFSET -0.27533 -0.75646 2.18105
						CHANNELS 3 Zrotation Yrotation Xrotation
						End Site
						{
							OFFSET -0.00000 -0.00000 1.15233
						}
					}
				}
			}
		}
	}
	JOINT lowerback
	{
		OFFSET 0 0 0
		CHANNELS 3 Zrotation Yrotation Xrotation
		JOINT Chest
		{
			OFFSET 0.06190 2.15152 -0.00935
			CHANNELS 3 Zrotation Yrotation Xrotation
			JOINT Chest2
			{
				OFFSET 0.06334 2.15332 0.00872
				CHANNELS 3 Zrotation Yrotation Xrotation
				JOINT lowerneck
				{
					OFFSET 0 0 0
					CHANNELS 3 Zrotation Yrotation Xrotation
					JOINT Neck
					{
						OFFSET -0.04202 1.66908 0.23524
						CHANNELS 3 Zrotation Yrotation Xrotation
						JOINT Head
						{
							OFFSET 0.07510 1.69357 -0.24440
							CHANNELS 3 Zrotation Yrotation Xrotation
							End Site
							{
								OFFSET 0.02556 1.71719 -0.11000
							}
						}
					}
				}
				JOINT LeftCollar
				{
					OFFSET 0 0 0
					CHANNELS 3 Zrotation Yrotation Xrotation
					JOINT LeftShoulder
					{
						OFFSET 3.67168 1.26306 -0.41342
CHANNELS 3 Zrotation Xrotation Yrotation
						JOINT LeftElbow
						{
OFFSET 0 -4.685100 -0.000000
CHANNELS 3 Zrotation Xrotation Yrotation
							JOINT LeftWrist
							{
OFFSET 0 -3.396260 -0.000000
CHANNELS 3 Zrotation Xrotation Yrotation
								JOINT lhand
								{
									OFFSET 0 0 0
CHANNELS 3 Zrotation Xrotation Yrotation
									JOINT LFingers
									{
OFFSET 0 -0.486080 -0.000000
CHANNELS 3 Zrotation Xrotation Yrotation
										End Site
										{
OFFSET 0 -0.391890 -0.000000
										}
									}
								}
								JOINT LThumb
								{
OFFSET 0 0.000000 0.000000
CHANNELS 3 Zrotation Xrotation Yrotation
									End Site
									{
OFFSET 0 -0.397870 0.397870
									}
								}
							}
						}
					}
				}
				JOINT RightCollar
				{
					OFFSET 0 0 0
					CHANNELS 3 Zrotation Yrotation Xrotation
					JOINT RightShoulder
					{
						OFFSET -3.04136 1.42992 -0.76390
CHANNELS 3 Zrotation Xrotation Yrotation
						JOINT RightElbow
						{
OFFSET 0 -5.555760 -0.000000
CHANNELS 3 Zrotation Xrotation Yrotation
							JOINT RightWrist
							{
OFFSET 0 -3.327740 -0.000000
CHANNELS 3 Zrotation Xrotation Yrotation
								JOINT rhand
								{
									OFFSET 0 0 0
CHANNELS 3 Zrotation Xrotation Yrotation
									JOINT RFingers
									{
OFFSET 0 -0.507630 -0.000000
CHANNELS 3 Zrotation Xrotation Yrotation
										End Site
										{
OFFSET 0 -0.409260 -0.000000
										}
									}
								}
								JOINT RThumb
								{
OFFSET 0 0.000000 0.000000
CHANNELS 3 Zrotation Xrotation Yrotation
									End Site
									{
OFFSET 0 -0.415510 0.415510
									}
								}
							}
						}
					}
				}
			}
		}
	}
}
MOTION
Frames: 12
Frame Time: 0.008333333333333333
47.132100 17.704000 6.002500 -79.583000 -86.405800 88.513300 0.000000 0.000000 0.000000 -16.462200 -6.744200 -10.329900 0.393500 4.027700 11.154700 0.213800 -2.709400 -8.217800 0.207700 -2.934300 -8.096000 0.000000 0.000000 0.000000 20.798800 7.651700 -19.572200 -2.029200 -8.926700 25.566200 -0.144700 -7.931300 -13.908100 -0.535800 -4.690200 13.027000 0.118800 -1.203800 0.031200 2.117700 -1.606700 -0.945000 2.116300 -0.803600 -0.927700 -6.471700 -2.956700 -21.585300 6.322100 -3.276700 14.138400 2.752100 -1.260600 8.126700 0.000000 0.000000 0.000000 -2.270900 -3.589500 -1.670900 12.234300 -20.155100 2.182400 13.547200 40.571500 -21.181500 0.000000 0.000000 0.000000 -7.125000 0.000000 0.000000 -15.192500 51.082600 2.322300 0.000000 0.000000 0.000000 -3.191100 -2.669100 13.870500 -19.218200 -29.688900 -5.138500 -16.065500 19.772600 23.967500 0.000000 0.000000 0.000000 7.125000 0.000000 -0.000000 13.971800 54.259900 -3.227400
47.124030 17.701779 6.007406 -81.208244 -86.373870 90.186856 0.000000 0.000000 0.000000 -16.409325 -6.637839 -10.368398 0.393189 4.026299 11.150556 0.221018 -2.741813 -8.356531 0.198017 -2.864807 -7.902614 0.000000 0.000000 0.000000 20.827737 7.556424 -19.661222 -2.039392 -8.947591 25.631486 -0.171840 -7.720177 -14.092546 -0.503829 -4.549896 12.629199 0.213912 -1.132535 -0.047086 2.058134 -1.512226 -0.938168 1.999230 -0.757303 -0.884171 -6.449813 -2.921305 -21.650838 6.322545 -3.232473 14.165118 2.754717 -1.237281 8.143373 0.000000 0.000000 0.000000 -2.261797 -3.596851 -1.366572 12.168252 -20.056467 2.159631 13.279010 40.419318 -20.950024 0.000000 0.000000 0.000000 -7.125000 0.000000 0.000000 -15.351964 50.813065 2.244435 0.000000 0.000000 0.000000 -3.264441 -2.715974 13.943565 -19.203902 -29.671283 -5.131388 -15.907608 19.801596 24.098007 0.000000 0.000000 0.000000 7.125000 0.000000 0.000000 14.193173 54.358542 -3.314606
47.110803 17.700259 6.010207 -79.114543 -86.368828 88.076597 0.000000 0.000000 0.000000 -16.434110 -6.607624 -10.314479 0.393749 4.029090 11.158480 0.233114 -2.939549 -8.579222 0.211013 -2.957296 -8.159944 0.000000 0.000000 0.000000 20.804456 7.247727 -19.665527 -2.043068 -8.955122 25.655091 -0.202990 -7.556158 -14.385089 -0.483983 -4.461054 12.377635 0.226068 -1.120754 -0.103601 2.001570 -1.497098 -0.921527 1.932663 -0.749973 -0.837673 -6.462655 -2.915262 -21.662560 6.364806 -3.230593 14.218062 2.771961 -1.232582 8.164129 0.000000 0.000000 0.000000 -2.257529 -3.566885 -1.209001 12.107110 -19.965072 2.138710 12.927026 40.281864 -20.857520 0.000000 0.000000 0.000000 -7.125000 0.000000 0.000000 -15.649614 50.666660 2.232232 0.000000 0.000000 0.000000 -3.345724 -2.706594 13.922021 -19.187776 -29.651329 -5.123391 -15.898113 19.821061 24.039031 0.000000 0.000000 0.000000 7.125000 0.000000 0.000000 14.174336 54.298753 -3.289281
47.095538 17.699336 6.010866 -74.768751 -86.338572 83.698477 0.000000 0.000000 0.000000 -16.444934 -6.602298 -10.277227 0.399370 4.057436 11.238294 0.248626 -3.294223 -8.859302 0.222265 -3.034295 -8.374242 0.000000 0.000000 0.000000 20.792436 6.821693 -19.643108 -2.038871 -8.946652 25.628434 -0.234274 -7.456210 -14.741659 -0.476438 -4.426641 12.280143 0.209384 -1.140715 -0.168943 1.960448 -1.524729 -0.893518 1.898015 -0.763842 -0.772129 -6.450233 -2.921100 -21.660175 6.385325 -3.248001 14.245989 2.774859 -1.238066 8.174517 0.000000 0.000000 0.000000 -2.263659 -3.548275 -1.138794 12.037365 -19.860609 2.114956 12.758386 40.286497 -20.564006 0.000000 0.000000 0.000000 -7.125000 0.000000 0.000000 -15.687482 50.354137 2.115528 0.000000 0.000000 0.000000 -3.432035 -2.721308 13.812088 -19.131087 -29.581193 -5.095415 -15.880663 19.869948 24.005151 0.000000 0.000000 0.000000 7.125000 0.000000 0.000000 14.175537 54.262050 -3.276695
47.081689 17.696428 6.010624 -73.314243 -86.332306 82.247285 0.000000 0.000000 0.000000 -16.451599 -6.463308 -10.360915 0.407807 4.099334 11.356413 0.263820 -3.528130 -9.129767 0.273235 -3.362229 -9.289041 0.000000 0.000000 0.000000 20.758889 6.582390 -19.722151 -2.057750 -8.985273 25.749418 -0.267017 -7.336493 -15.086483 -0.456010 -4.330820 12.009635 0.171417 -1.091291 -0.242987 1.912582 -1.459794 -0.873402 1.868004 -0.731203 -0.712330 -6.469278 -2.931804 -21.691196 6.460440 -3.273072 14.307290 2.800785 -1.242646 8.204073 0.000000 0.000000 0.000000 -2.255835 -3.546741 -1.132948 11.971072 -19.761302 2.092515 12.614801 40.416341 -20.944346 0.000000 0.000000 0.000000 -7.125000 0.000000 0.000000 -15.984433 50.701270 2.296276 0.000000 0.000000 0.000000 -3.495068 -2.698997 13.625378 -19.064235 -29.498425 -5.062453 -15.389590 19.608670 23.702450 0.000000 0.000000 0.000000 7.125000 0.000000 0.000000 14.521873 53.872838 -3.220030
47.083022 17.685612 6.016330 -84.892758 -86.432291 94.063429 0.000000 0.000000 0.000000 -16.428411 -6.192537 -10.731449 0.416791 4.143872 11.481849 0.290132 -3.258051 -9.574816 0.287580 -3.448762 -9.530678 0.000000 0.000000 0.000000 20.703696 6.948168 -20.349855 -2.162460 -9.196603 26.412232 -0.304020 -6.830163 -15.104454 -0.349579 -3.798911 10.511567 0.231268 -0.795916 -0.381044 1.803868 -1.066209 -0.964893 1.720481 -0.534540 -0.744037 -6.502400 -2.928633 -21.658038 6.567782 -3.284382 14.345086 2.841715 -1.239487 8.214803 0.000000 0.000000 0.000000 -2.197184 -3.525744 -1.038684 11.902433 -19.658126 2.069319 12.577644 40.468429 -20.641001 0.000000 0.000000 0.000000 -7.125000 0.000000 0.000000 -15.891958 50.400322 2.163466 0.000000 0.000000 0.000000 -3.499430 -2.723377 13.418284 -18.922568 -29.322328 -4.992878 -15.709505 20.045023 23.892168 0.000000 0.000000 0.000000 7.125000 0.000000 0.000000 14.292834 54.118796 -3.254264
47.062040 17.686134 6.012271 -76.762058 -86.427928 85.812585 0.000000 0.000000 0.000000 -16.488270 -6.271172 -10.642943 0.430392 4.210074 11.668404 0.300813 -3.716480 -9.751500 0.295676 -3.496725 -9.664813 0.000000 0.000000 0.000000 20.651825 6.385901 -20.234214 -2.162090 -9.195746 26.409634 -0.343991 -6.795534 -15.613136 -0.371404 -3.913926 10.834629 0.178373 -0.893116 -0.385055 1.745933 -1.195709 -0.913258 1.690211 -0.599006 -0.685378 -6.531888 -2.940521 -21.620124 6.667028 -3.316225 14.384412 2.876620 -1.246797 8.226479 0.000000 0.000000 0.000000 -2.158436 -3.539449 -0.955788 11.810080 -19.519171 2.038375 12.471263 40.709043 -20.812638 0.000000 0.000000 0.000000 -7.125000 0.000000 0.000000 -16.065222 50.550529 2.247981 0.000000 0.000000 0.000000 -3.511171 -2.706575 13.182086 -18.801015 -29.170614 -4.933526 -15.794360 20.169804 23.965659 0.000000 0.000000 0.000000 7.125000 0.000000 0.000000 14.243167 54.207066 -3.273460
47.042458 17.685834 6.007304 -70.264089 -86.416231 79.192790 0.000000 0.000000 0.000000 -16.558599 -6.314663 -10.566736 0.444087 4.275726 11.853671 0.310314 -4.092824 -9.912826 0.317397 -3.621346 -10.013720 0.000000 0.000000 0.000000 20.597680 5.920484 -20.164845 -2.179707 -9.230708 26.519631 -0.382410 -6.738472 -16.065198 -0.373251 -3.924049 10.863116 0.110817 -0.956909 -0.346207 1.684336 -1.280052 -0.876619 1.665322 -0.640611 -0.667151 -6.560414 -2.961216 -21.573543 6.759717 -3.361492 14.459436 2.907686 -1.261148 8.249659 0.000000 0.000000 0.000000 -2.123775 -3.528118 -0.920085 11.745225 -19.421485 2.016796 12.495133 40.845486 -20.840518 0.000000 0.000000 0.000000 -7.125000 0.000000 0.000000 -16.054150 50.581380 2.258604 0.000000 0.000000 0.000000 -3.508066 -2.671288 12.870749 -18.658568 -28.992165 -4.864304 -15.740175 20.341156 23.927364 0.000000 0.000000 0.000000 7.125000 0.000000 0.000000 14.278938 54.159103 -3.265076
47.029206 17.680641 6.003670 -69.155079 -86.426693 78.108322 0.000000 0.000000 0.000000 -16.557467 -6.400372 -10.642397 0.463597 4.367274 12.112205 0.335225 -4.298599 -10.305692 0.314563 -3.604991 -9.967998 0.000000 0.000000 0.000000 20.571104 5.813549 -20.374169 -2.238942 -9.346965 26.886741 -0.413730 -6.709104 -16.435712 -0.343218 -3.764694 10.415541 0.083214 -0.906709 -0.400164 1.619710 -1.213300 -0.873893 1.613369 -0.607054 -0.636782 -6.575589 -2.963143 -21.553256 6.855799 -3.381130 14.470580 2.940488 -1.261894 8.253703 0.000000 0.000000 0.000000 -2.076843 -3.542507 -0.885665 11.682780 -19.327160 1.996067 12.437374 40.793231 -20.563651 0.000000 0.000000 0.000000 -7.125000 0.000000 0.000000 -15.992213 50.303424 2.138313 0.000000 0.000000 0.000000 -3.470455 -2.734520 12.439056 -18.436469 -28.712354 -4.757073 -15.921775 20.566796 23.814125 0.000000 0.000000 0.000000 7.125000 0.000000 0.000000 14.042924 54.081884 -3.182811
47.009734 17.676148 5.997425 -64.990850 -86.354921 73.923789 0.000000 0.000000 0.000000 -16.525233 -6.682204 -10.586363 0.487575 4.477086 12.422994 0.364612 -4.520737 -10.751733 0.294410 -3.488999 -9.643264 0.000000 0.000000 0.000000 20.573828 5.575009 -20.432358 -2.269929 -9.407030 27.077133 -0.443624 -6.764206 -16.852183 -0.324938 -3.663565 10.132049 0.071922 -0.928163 -0.457178 1.564475 -1.242315 -0.855739 1.561932 -0.621575 -0.586402 -6.608102 -2.986489 -21.520611 6.946635 -3.425993 14.510330 2.971304 -1.276296 8.267428 0.000000 0.000000 0.000000 -2.057257 -3.531772 -0.763387 11.646895 -19.273028 1.984231 12.175192 40.749842 -20.791054 0.000000 0.000000 0.000000 -7.125000 0.000000 0.000000 -16.337400 50.482838 2.260009 0.000000 0.000000 0.000000 -3.429366 -2.739614 12.029373 -18.229106 -28.449417 -4.657934 -16.016273 20.932357 24.100019 0.000000 0.000000 0.000000 7.125000 0.000000 0.000000 14.085404 54.381189 -3.296679
46.992196 17.672120 5.990603 -61.951770 -86.288170 70.838736 0.000000 0.000000 0.000000 -16.521539 -6.788258 -10.603763 0.510626 4.580224 12.715114 0.388478 -4.591962 -11.096374 0.333675 -3.709582 -10.261334 0.000000 0.000000 0.000000 20.597628 5.375306 -20.476843 -2.303812 -9.472067 27.283476 -0.465149 -6.806850 -17.148423 -0.301213 -3.528281 9.753188 0.043858 -0.918874 -0.480610 1.508894 -1.229944 -0.819357 1.519774 -0.615292 -0.536963 -6.602680 -3.012073 -21.446840 7.029608 -3.482175 14.467079 2.990795 -1.295773 8.246205 0.000000 0.000000 0.000000 -2.030324 -3.659531 0.026568 11.429630 -18.943357 1.913385 12.618851 41.554853 -19.216958 0.000000 0.000000 0.000000 -7.125000 0.000000 0.000000 -15.307663 49.012387 1.576926 0.000000 0.000000 0.000000 -3.362393 -2.803143 11.528930 -17.964337 -28.111232 -4.532570 -16.202000 21.220936 24.108244 0.000000 0.000000 0.000000 7.125000 0.000000 0.000000 13.902982 54.424213 -3.268358
46.976166 17.668599 5.984014 -59.496052 -86.237013 68.325756 0.000000 0.000000 0.000000 -16.550640 -6.898172 -10.598567 0.530812 4.668726 12.966229 0.411897 -4.618148 -11.423137 0.382285 -3.970266 -10.993051 0.000000 0.000000 0.000000 20.606361 5.217363 -20.549784 -2.348116 -9.556270 27.551344 -0.478717 -6.908638 -17.396981 -0.273479 -3.363266 9.291805 0.037299 -0.916102 -0.448800 1.441593 -1.225618 -0.793140 1.454725 -0.613025 -0.529375 -6.643716 -3.014830 -21.394696 7.146482 -3.502493 14.497426 3.035182 -1.296837 8.252453 0.000000 0.000000 0.000000 -1.997102 -3.626861 -0.286445 11.484010 -19.026240 1.930849 12.338635 41.165715 -20.614888 0.000000 0.000000 0.000000 -7.125000 0.000000 0.000000 -16.124173 50.333873 2.186198 0.000000 0.000000 0.000000 -3.264705 -2.842041 11.039622 -17.707269 -27.780702 -4.411978 -16.257332 21.616434 24.575365 0.000000 0.000000 0.000000 7.125000 0.000000 0.000000 14.075398 54.895269 -3.472741
